<?xml version="1.0" standalone="no"?>
<!DOCTYPE svg PUBLIC "-//W3C//DTD SVG 20010904//EN"
 "http://www.w3.org/TR/2001/REC-SVG-20010904/DTD/svg10.dtd">
<svg version="1.0" xmlns="http://www.w3.org/2000/svg"
 width="260.000000pt" height="260.000000pt" viewBox="0 0 260.000000 260.000000"
 preserveAspectRatio="xMidYMid meet">
<metadata>
Created by potrace 1.11, written by Peter Selinger 2001-2013
</metadata>
<g transform="translate(0.000000,260.000000) scale(0.100000,-0.100000)"
fill="#000000" stroke="none">
<path d="M1155 2311 c-2 -2 -24 -5 -47 -7 -53 -4 -106 -11 -134 -18 -12 -2
-39 -7 -60 -11 -45 -8 -69 -13 -69 -15 0 -2 -13 -5 -51 -13 -11 -3 -37 -12
-58 -21 -21 -9 -42 -13 -47 -10 -5 3 -9 0 -9 -5 0 -6 -3 -10 -7 -9 -14 3 -167
-74 -235 -118 -234 -151 -363 -345 -376 -566 l-5 -88 34 0 c31 0 34 -3 34 -30
0 -16 -3 -30 -6 -30 -4 0 -4 -20 -1 -45 4 -39 2 -45 -12 -39 -13 5 -16 -1 -16
-34 0 -39 19 -60 41 -46 5 3 9 1 9 -4 0 -6 -11 -13 -25 -16 -14 -4 -23 -11
-20 -16 3 -5 -4 -11 -14 -15 -11 -3 -32 -30 -46 -59 -71 -146 -7 -301 143
-346 22 -7 16 -8 -28 -9 -55 -1 -56 -1 -58 -32 -3 -39 -10 -51 -24 -43 -22 14
-3 -138 24 -198 27 -59 92 -138 113 -138 7 0 15 -4 17 -9 1 -5 26 -15 53 -23
42 -12 212 -14 1030 -12 539 1 991 4 1004 8 32 7 100 52 129 85 22 24 62 92
69 116 15 58 20 87 19 125 -1 39 -4 45 -23 46 -13 1 -27 2 -32 3 -4 0 -8 16
-7 34 1 30 -2 32 -33 34 -41 2 -54 13 -15 13 16 0 40 9 54 20 14 11 29 20 34
20 15 0 48 43 69 90 21 47 28 140 12 175 -4 11 -9 22 -9 25 -3 12 -41 70 -46
70 -4 0 -15 8 -26 18 -10 10 -28 21 -39 26 -11 4 -15 10 -10 14 13 9 13 202 0
202 -23 1 22 20 46 20 l27 0 -3 78 c-3 81 -19 157 -35 167 -6 4 -8 10 -5 14 6
11 -38 102 -76 154 -66 92 -192 204 -294 262 -27 16 -52 31 -55 34 -3 3 -9 7
-15 8 -5 1 -44 18 -86 37 -42 20 -84 36 -93 36 -9 0 -16 5 -16 12 0 6 -3 9 -6
5 -3 -3 -29 2 -57 10 -29 9 -61 17 -72 19 -11 2 -31 6 -45 9 -14 4 -37 8 -53
11 -15 2 -39 6 -55 9 -62 13 -397 27 -407 16z"/>
</g>
</svg>
